<?xml version="1.0" standalone="no"?>
<!DOCTYPE svg PUBLIC "-//W3C//DTD SVG 20010904//EN" "http://www.w3.org/TR/2001/REC-SVG-20010904/DTD/svg10.dtd">
<svg xmlns="http://www.w3.org/2000/svg" version="1.0" width="850.000000pt" height="850.000000pt" viewBox="0 0 850.000000 850.000000" preserveAspectRatio="xMidYMid meet">
<metadata>
Created by potrace 1.16, written by Peter Selinger 2001-2019
<meta name="Producer" content="Online-Convert"/></metadata>
<g transform="translate(0.000000,850.000000) scale(0.100000,-0.100000)" fill="#000000" stroke="none">
<path d="M3260 8354 c-211 -27 -443 -139 -590 -285 -154 -151 -279 -386 -285 -534 -1 -33 -6 -103 -10 -155 -19 -235 57 -476 217 -688 141 -186 379 -326 632 -371 94 -17 250 -13 353 9 250 52 481 208 620 417 71 107 137 269 159 390 25 138 16 345 -20 467 -36 120 -84 222 -151 316 -30 44 -55 86 -55 94 0 21 -118 127 -206 185 -155 102 -312 150 -504 156 -69 2 -141 1 -160 -1z"/>
<path d="M7368 7511 c-15 -5 -36 -16 -48 -24 -34 -24 -460 -511 -460 -526 0 -13 -62 -90 -164 -201 -28 -30 -93 -104 -145 -163 -52 -59 -100 -107 -107 -107 -7 0 -37 28 -65 63 -29 34 -58 67 -64 72 -7 6 -67 72 -135 148 -67 76 -136 147 -154 158 -42 26 -121 25 -164 -1 -57 -35 -91 -114 -77 -179 6 -29 83 -126 204 -256 88 -96 220 -242 288 -319 72 -81 111 -105 171 -106 64 0 102 21 163 91 31 35 104 120 164 189 60 68 120 138 134 154 14 17 51 58 82 91 31 34 64 74 74 88 9 15 25 27 34 27 17 0 455 492 483 544 27 49 23 124 -9 173 -43 67 -137 105 -205 84z"/>
<path d="M2990 6070 c-336 -19 -546 -68 -771 -181 -381 -191 -640 -525 -827 -1069 -231 -673 -292 -1505 -147 -2004 56 -191 124 -318 224 -416 103 -100 248 -158 368 -147 58 6 63 5 83 -20 29 -37 25 -54 -26 -103 -63 -62 -171 -207 -247 -333 -35 -57 -74 -115 -86 -128 -51 -54 -134 -287 -168 -469 -7 -41 -16 -130 -20 -197 -7 -134 6 -198 53 -259 96 -128 902 -358 1639 -469 708 -107 1742 -132 2445 -60 460 48 954 140 1435 266 436 115 654 219 708 338 50 107 8 409 -104 743 -41 121 -79 205 -136 298 -58 94 -134 189 -151 189 -8 1 -42 25 -76 54 -34 28 -93 73 -129 99 -37 27 -67 54 -67 62 0 7 16 26 36 41 50 38 110 105 170 189 48 69 52 71 100 77 61 8 99 27 141 71 83 86 101 213 47 329 -31 64 -31 69 -32 215 0 118 -5 169 -22 244 -27 114 -76 238 -129 323 -29 47 -40 76 -44 122 -28 272 -201 488 -447 559 -30 9 -109 23 -175 31 -497 63 -846 198 -1147 443 -106 86 -288 277 -408 427 -232 291 -290 354 -399 436 -197 148 -433 244 -701 284 -137 20 -723 29 -990 15z m1775 -1580 c217 -69 393 -233 486 -450 37 -88 79 -265 79 -338 l0 -53 -37 6 c-374 61 -652 80 -926 65 -100 -6 -207 -14 -237 -20 -30 -5 -84 -12 -120 -15 -36 -4 -87 -11 -115 -16 -27 -6 -70 -12 -95 -15 -25 -3 -62 -9 -82 -14 -21 -4 -71 -8 -112 -8 -65 0 -78 3 -100 23 -21 20 -26 33 -26 74 0 42 5 56 30 85 37 42 80 60 212 86 57 12 106 24 109 28 4 4 14 32 24 62 29 93 106 229 168 296 59 64 163 140 233 171 113 48 185 62 314 59 96 -3 141 -9 195 -26z m-2654 -220 c3 -91 7 -235 8 -320 l1 -155 -55 -43 c-31 -24 -65 -57 -77 -73 -24 -32 -55 -38 -65 -12 -9 22 22 305 48 443 24 129 65 277 85 308 9 13 23 22 32 20 15 -3 18 -24 23 -168z m4599 -224 c79 -9 171 -37 234 -69 59 -31 148 -91 170 -116 11 -11 25 -21 33 -21 7 0 18 -11 23 -25 5 -14 16 -28 23 -31 21 -8 81 -94 107 -154 13 -30 30 -62 36 -70 7 -8 15 -28 19 -45 4 -16 11 -41 16 -55 5 -14 11 -50 14 -80 2 -30 7 -71 10 -90 4 -19 2 -53 -2 -75 -8 -35 -13 -40 -38 -43 -34 -4 -133 17 -141 30 -3 4 -18 8 -34 8 -16 0 -32 5 -35 10 -3 6 -16 10 -28 10 -29 0 -232 66 -280 91 -146 76 -194 105 -206 120 -7 11 -19 19 -25 19 -6 0 -38 30 -71 67 -33 36 -72 78 -86 92 -14 14 -28 34 -32 45 -6 14 -13 17 -35 12 -15 -4 -31 -12 -37 -19 -14 -17 -173 -97 -220 -111 -51 -15 -210 -13 -230 4 -22 18 -19 29 30 99 25 36 45 70 45 77 0 8 9 18 20 24 11 6 20 16 20 21 0 6 19 28 43 48 23 20 56 51 74 68 17 18 36 33 42 33 5 0 22 11 37 25 15 14 35 25 44 25 10 0 28 8 41 18 23 18 118 50 149 51 34 0 135 14 140 18 3 3 25 2 50 -1 25 -3 61 -7 80 -10z m-3896 -176 c193 -49 332 -169 438 -378 41 -81 42 -84 23 -98 -10 -8 -31 -14 -45 -14 -58 0 -185 42 -303 99 -68 34 -128 61 -132 61 -5 0 -47 -40 -94 -88 -129 -133 -247 -185 -465 -207 -68 -7 -72 -9 -130 -64 -110 -105 -173 -132 -221 -97 -16 12 -17 23 -12 107 18 290 211 563 465 660 137 52 320 59 476 19z m2086 -311 c52 -5 173 -19 268 -31 169 -21 173 -22 180 -47 4 -14 7 -93 7 -176 -1 -124 -5 -165 -24 -235 -77 -287 -275 -507 -536 -596 -114 -39 -295 -46 -416 -15 -309 78 -547 331 -613 654 -16 77 -20 291 -7 352 6 28 11 31 71 41 351 63 760 84 1070 53z m1492 -46 c5 -20 34 -55 81 -98 165 -154 301 -219 687 -331 177 -51 207 -67 239 -124 63 -113 -33 -298 -165 -317 -34 -5 -43 -12 -74 -61 -89 -143 -257 -273 -425 -329 -73 -25 -93 -27 -240 -28 -149 0 -165 2 -233 27 -104 38 -174 82 -254 163 -86 86 -119 133 -169 239 -93 200 -110 426 -48 656 29 109 29 109 159 102 84 -4 126 -1 182 13 98 23 198 73 209 103 12 32 41 24 51 -15z m-3545 -122 c3 -12 34 -31 86 -54 123 -53 191 -69 312 -76 l110 -6 13 -50 c20 -80 26 -244 12 -332 -29 -183 -100 -323 -230 -454 -83 -84 -107 -103 -190 -142 -134 -65 -207 -80 -355 -74 -134 6 -175 17 -294 76 -94 48 -212 154 -275 248 -38 56 -41 58 -85 59 -73 3 -153 55 -196 129 -54 91 -51 181 6 229 39 33 71 33 126 0 71 -41 127 -15 253 116 l65 67 70 7 c101 8 218 40 310 85 89 42 205 133 205 160 0 23 9 31 33 31 10 0 21 -8 24 -19z m2273 -1114 c135 -80 216 -156 312 -292 71 -100 168 -298 168 -343 0 -7 7 -29 16 -50 9 -20 19 -54 21 -74 2 -20 10 -73 17 -118 7 -44 10 -83 6 -85 -32 -20 -148 -45 -298 -64 -41 -5 -75 -11 -77 -13 -2 -2 1 -95 5 -208 14 -323 12 -640 -2 -645 -28 -9 -118 -14 -412 -26 -239 -9 -373 -9 -585 1 -152 6 -279 14 -283 16 -5 3 -8 -1 -8 -8 0 -10 -2 -10 -8 -1 -4 7 -37 13 -77 15 l-70 3 1 290 c0 160 6 346 12 415 26 264 24 245 42 358 13 77 9 91 -32 113 -46 25 -85 -38 -112 -181 -9 -47 -19 -95 -21 -106 -5 -23 8 -24 -205 10 -19 3 -48 10 -65 14 -29 9 -30 10 -27 63 2 30 4 61 6 69 1 8 6 33 10 55 33 189 137 413 261 565 93 113 262 239 375 280 33 11 39 10 75 -15 209 -142 475 -162 692 -51 38 19 81 46 98 59 28 24 30 24 65 9 19 -9 64 -34 100 -55z m1000 -137 c17 -16 43 -35 58 -43 15 -7 36 -18 47 -24 11 -5 34 -18 52 -27 17 -9 43 -16 56 -16 14 0 28 -4 31 -8 3 -5 18 -7 34 -4 16 2 33 -1 36 -7 9 -14 113 -15 121 -1 3 6 22 10 40 10 44 0 164 38 190 61 11 9 47 31 80 48 65 35 99 35 131 0 9 -10 22 -19 27 -19 6 0 17 -7 26 -15 97 -94 169 -166 181 -184 8 -12 27 -36 43 -54 15 -17 27 -36 27 -43 0 -7 8 -21 19 -31 10 -10 22 -29 26 -43 4 -14 11 -30 16 -36 16 -20 67 -128 79 -169 7 -22 19 -54 27 -72 9 -17 20 -51 25 -75 5 -24 11 -52 13 -63 3 -11 7 -36 10 -55 7 -46 13 -75 15 -75 4 0 12 -114 13 -202 2 -85 0 -94 -22 -114 -39 -36 -104 -83 -136 -98 -16 -7 -37 -17 -46 -21 -9 -5 -35 -14 -58 -20 -58 -15 -81 -1 -81 50 0 21 -5 42 -11 46 -7 4 -9 21 -5 45 3 22 2 40 -4 44 -6 4 -10 23 -10 43 0 43 -4 75 -28 197 -28 149 -76 211 -115 151 -12 -17 -13 -27 -6 -32 7 -4 9 -21 5 -45 -4 -23 -2 -40 5 -44 6 -4 9 -24 8 -44 -2 -20 0 -42 4 -48 4 -7 5 -26 2 -43 -3 -17 -2 -36 2 -43 4 -7 9 -37 10 -67 4 -87 11 -162 18 -195 12 -56 -6 -80 -72 -94 -32 -7 -71 -19 -88 -26 -40 -18 -233 -65 -267 -65 -15 0 -29 -4 -32 -9 -5 -8 -61 -21 -117 -26 -15 -2 -42 -6 -60 -11 -19 -4 -37 -7 -42 -6 -4 1 -24 -5 -43 -13 -20 -8 -53 -15 -73 -15 -21 0 -60 -7 -87 -15 -27 -8 -58 -14 -69 -14 -46 -1 -141 -14 -150 -21 -15 -12 -113 -11 -121 1 -3 6 -8 95 -10 197 -6 298 -9 356 -16 372 -4 8 -7 38 -7 65 0 55 -5 129 -16 215 -3 30 -7 62 -7 70 0 8 -5 20 -9 26 -5 6 -9 22 -8 35 0 13 -3 38 -7 54 -11 50 -62 238 -72 270 -23 67 -32 102 -32 119 0 19 170 196 188 196 7 0 12 4 12 9 0 19 154 98 196 100 12 0 36 -12 54 -29z m-3860 -40 c76 -58 188 -105 290 -121 148 -23 323 23 444 116 47 35 51 37 87 26 80 -24 299 -216 315 -276 2 -11 -13 -69 -35 -130 -51 -143 -86 -302 -110 -500 -19 -149 -38 -417 -40 -545 -1 -58 -12 -220 -15 -220 -19 0 -363 46 -451 60 -205 33 -687 140 -728 162 -16 8 -18 18 -13 66 30 294 47 515 42 536 -14 58 -80 55 -111 -4 -24 -47 -52 -187 -71 -360 -9 -85 -21 -159 -25 -164 -9 -11 -165 36 -231 70 -92 47 -100 76 -73 274 53 394 212 718 457 930 63 55 178 130 198 129 3 0 34 -22 70 -49z m1300 -984 l125 -23 -2 -64 c-8 -256 -27 -615 -33 -622 -10 -11 -264 14 -273 27 -19 28 10 620 34 684 10 27 -3 27 149 -2z m2117 12 c26 -33 58 -688 34 -702 -6 -4 -57 -12 -112 -18 -83 -9 -103 -8 -114 3 -9 10 -15 66 -19 189 -3 96 -11 244 -17 328 -6 84 -8 156 -4 160 5 6 174 46 211 51 6 0 16 -5 21 -11z"/>
<path d="M4139 3341 c-25 -25 -29 -37 -29 -81 0 -44 4 -56 29 -81 23 -23 38 -29 71 -29 33 0 48 6 71 29 25 25 29 37 29 81 0 44 -4 56 -29 81 -23 23 -38 29 -71 29 -33 0 -48 -6 -71 -29z"/>
<path d="M4809 3341 c-25 -25 -29 -37 -29 -81 0 -44 4 -56 29 -81 41 -41 105 -41 144 -1 22 23 27 37 27 81 0 45 -4 57 -29 82 -23 23 -38 29 -71 29 -33 0 -48 -6 -71 -29z"/>
<path d="M4264 2924 c-34 -33 -26 -65 28 -121 133 -136 395 -133 521 6 54 60 48 121 -14 136 -22 6 -33 0 -59 -28 -44 -49 -117 -78 -195 -78 -76 0 -124 19 -181 71 -51 47 -66 49 -100 14z"/>
<path d="M6104 3137 c-22 -19 -28 -34 -32 -80 -4 -51 -2 -58 23 -81 37 -35 96 -36 130 -2 28 28 42 103 26 135 -14 25 -61 51 -95 51 -14 0 -37 -10 -52 -23z"/>
<path d="M6697 3009 c-24 -14 -47 -69 -47 -113 0 -63 82 -107 142 -75 24 13 48 67 48 109 0 65 -86 112 -143 79z"/>
<path d="M6132 2738 c-30 -30 -7 -90 60 -155 56 -54 126 -85 209 -91 151 -11 290 78 221 141 -25 23 -38 21 -96 -8 -104 -53 -234 -15 -301 87 -19 29 -32 38 -53 38 -15 0 -33 -5 -40 -12z"/>
<path d="M2925 3045 c-29 -28 -34 -89 -10 -134 17 -33 33 -41 84 -41 47 0 91 41 91 87 0 43 -19 92 -40 103 -36 19 -99 12 -125 -15z"/>
<path d="M2380 2983 c-40 -15 -60 -46 -60 -94 0 -59 30 -99 78 -105 89 -10 126 51 96 159 -10 32 -73 55 -114 40z"/>
<path d="M2881 2631 c-51 -51 -117 -81 -178 -81 -38 0 -98 23 -125 47 -38 34 -98 12 -98 -36 0 -89 194 -150 342 -107 127 37 218 155 162 210 -26 26 -51 18 -103 -33z"/>
</g>
</svg>
